<?xml version="1.0" encoding="utf-8"?>
<!-- Generator: Adobe Illustrator 25.3.0, SVG Export Plug-In . SVG Version: 6.00 Build 0)  -->
<svg version="1.1" id="Capa_1" xmlns="http://www.w3.org/2000/svg" xmlns:xlink="http://www.w3.org/1999/xlink" x="0px" y="0px"
	 viewBox="0 0 240 240" style="enable-background:new 0 0 240 240;" xml:space="preserve">
<style type="text/css">
	.st0{fill:url(#SVGID_1_);}
	.st1{fill:url(#SVGID_2_);}
	.st2{fill:#009540;}
	.st3{fill:url(#SVGID_3_);}
</style>
<g>
	<path d="M23.48,230.1c-0.18,0.46-0.42,0.85-0.73,1.16c-0.31,0.31-0.68,0.54-1.11,0.7c-0.43,0.15-0.91,0.23-1.43,0.23
		c-0.81,0-1.48-0.16-2.02-0.49c-0.54-0.32-0.98-0.73-1.33-1.21l1.21-1.25c0.31,0.39,0.63,0.69,0.95,0.91
		c0.32,0.22,0.71,0.32,1.16,0.32c0.5,0,0.9-0.17,1.21-0.5c0.3-0.33,0.46-0.85,0.46-1.55v-6.88h1.89v6.93
		C23.75,229.09,23.66,229.63,23.48,230.1z"/>
	<path d="M39.83,229.08c-0.25,0.62-0.61,1.16-1.06,1.62c-0.46,0.46-1,0.83-1.62,1.1c-0.62,0.27-1.32,0.41-2.07,0.41
		s-1.45-0.13-2.07-0.4c-0.62-0.27-1.16-0.63-1.61-1.08c-0.45-0.46-0.8-0.99-1.05-1.61s-0.38-1.27-0.38-1.96s0.13-1.34,0.38-1.96
		c0.25-0.62,0.61-1.16,1.06-1.62c0.46-0.46,1-0.83,1.62-1.1c0.62-0.27,1.32-0.41,2.07-0.41c0.76,0,1.45,0.13,2.07,0.4
		c0.62,0.27,1.16,0.63,1.61,1.08c0.45,0.46,0.8,0.99,1.05,1.61c0.25,0.62,0.38,1.27,0.38,1.96S40.08,228.47,39.83,229.08z
		 M38.15,225.8c-0.16-0.42-0.39-0.79-0.69-1.11s-0.65-0.57-1.06-0.76c-0.41-0.19-0.86-0.28-1.34-0.28s-0.93,0.09-1.34,0.27
		c-0.41,0.18-0.75,0.43-1.04,0.74c-0.29,0.31-0.52,0.68-0.68,1.11c-0.16,0.42-0.25,0.88-0.25,1.35s0.08,0.93,0.25,1.35
		c0.16,0.42,0.39,0.8,0.69,1.11s0.65,0.57,1.06,0.76c0.41,0.19,0.86,0.28,1.34,0.28s0.93-0.09,1.34-0.27
		c0.41-0.18,0.75-0.43,1.04-0.74c0.29-0.31,0.52-0.68,0.68-1.11c0.16-0.42,0.25-0.88,0.25-1.35
		C38.4,226.68,38.32,226.23,38.15,225.8z"/>
	<path d="M54.72,227.8c0,0.73-0.1,1.37-0.3,1.92s-0.48,1.01-0.85,1.38c-0.36,0.37-0.81,0.64-1.32,0.83
		c-0.52,0.18-1.1,0.27-1.74,0.27c-0.63,0-1.21-0.09-1.72-0.27c-0.51-0.18-0.95-0.46-1.32-0.82c-0.36-0.36-0.64-0.81-0.84-1.35
		c-0.2-0.54-0.29-1.16-0.29-1.87v-5.64h1.71v5.57c0,0.91,0.22,1.61,0.66,2.09c0.44,0.48,1.05,0.71,1.83,0.71
		c0.77,0,1.38-0.23,1.82-0.69c0.44-0.46,0.66-1.14,0.66-2.04v-5.64h1.71V227.8z"/>
	<path d="M67.57,232.04l-2.42-3.42H63v3.42h-1.71v-9.8h4.37c0.56,0,1.07,0.07,1.52,0.22s0.84,0.35,1.15,0.62
		c0.31,0.27,0.55,0.59,0.72,0.98c0.17,0.39,0.25,0.82,0.25,1.29c0,0.41-0.06,0.78-0.18,1.1c-0.12,0.32-0.28,0.61-0.48,0.85
		c-0.21,0.25-0.45,0.46-0.73,0.63c-0.28,0.17-0.6,0.31-0.94,0.4l2.65,3.71H67.57z M67.01,224.21c-0.36-0.28-0.86-0.42-1.5-0.42H63
		v3.3h2.53c0.62,0,1.11-0.15,1.47-0.45s0.55-0.7,0.55-1.21C67.55,224.89,67.37,224.48,67.01,224.21z"/>
	<path d="M82.44,222.24h1.71v9.8h-1.44l-5.39-6.97v6.97h-1.71v-9.8h1.59l5.24,6.78V222.24z"/>
	<path d="M100.25,232.04h-1.82l-0.99-2.37H92.8l-1.01,2.37h-1.76l4.31-9.87h1.6L100.25,232.04z M95.11,224.23l-1.68,3.92h3.37
		L95.11,224.23z"/>
	<path d="M106.13,222.24h1.71v8.25h5.15v1.55h-6.86V222.24z"/>
	<path d="M131.08,226.62c-0.22,0.45-0.52,0.83-0.9,1.12s-0.83,0.53-1.34,0.68c-0.51,0.16-1.06,0.23-1.64,0.23h-2.09v3.38h-1.83
		v-10.5h4.14c0.61,0,1.16,0.08,1.66,0.25s0.92,0.4,1.26,0.71c0.34,0.31,0.61,0.68,0.79,1.11c0.18,0.43,0.28,0.92,0.28,1.46
		C131.42,225.65,131.3,226.17,131.08,226.62z M128.92,223.68c-0.41-0.32-0.96-0.47-1.66-0.47h-2.15V227h2.15
		c0.7,0,1.26-0.17,1.66-0.52c0.41-0.35,0.61-0.81,0.61-1.38C129.54,224.47,129.33,224,128.92,223.68z"/>
	<path d="M143.7,232.04l-2.42-3.42h-2.16v3.42h-1.71v-9.8h4.37c0.56,0,1.07,0.07,1.52,0.22c0.45,0.14,0.83,0.35,1.15,0.62
		c0.31,0.27,0.55,0.59,0.72,0.98c0.17,0.39,0.25,0.82,0.25,1.29c0,0.41-0.06,0.78-0.18,1.1c-0.12,0.32-0.28,0.61-0.48,0.85
		c-0.21,0.25-0.45,0.46-0.74,0.63c-0.28,0.17-0.6,0.31-0.94,0.4l2.65,3.71H143.7z M143.14,224.21c-0.36-0.28-0.86-0.42-1.5-0.42
		h-2.51v3.3h2.53c0.62,0,1.11-0.15,1.47-0.45s0.55-0.7,0.55-1.21C143.67,224.89,143.49,224.48,143.14,224.21z"/>
	<path d="M161.17,229.08c-0.25,0.62-0.61,1.16-1.06,1.62s-1,0.83-1.62,1.1s-1.32,0.41-2.07,0.41s-1.45-0.13-2.07-0.4
		c-0.62-0.27-1.16-0.63-1.61-1.08c-0.45-0.46-0.8-0.99-1.05-1.61s-0.38-1.27-0.38-1.96s0.13-1.34,0.38-1.96
		c0.25-0.62,0.61-1.16,1.06-1.62s1-0.83,1.62-1.1c0.62-0.27,1.32-0.41,2.07-0.41s1.45,0.13,2.07,0.4c0.62,0.27,1.16,0.63,1.61,1.08
		c0.45,0.46,0.8,0.99,1.05,1.61c0.25,0.62,0.38,1.27,0.38,1.96S161.42,228.47,161.17,229.08z M159.5,225.8
		c-0.16-0.42-0.39-0.79-0.69-1.11s-0.65-0.57-1.06-0.76c-0.41-0.19-0.86-0.28-1.34-0.28s-0.93,0.09-1.34,0.27
		c-0.41,0.18-0.75,0.43-1.04,0.74s-0.52,0.68-0.68,1.11c-0.16,0.42-0.25,0.88-0.25,1.35s0.08,0.93,0.25,1.35
		c0.16,0.42,0.39,0.8,0.69,1.11s0.65,0.57,1.06,0.76c0.41,0.19,0.86,0.28,1.34,0.28s0.93-0.09,1.34-0.27
		c0.41-0.18,0.75-0.43,1.04-0.74s0.52-0.68,0.68-1.11s0.25-0.88,0.25-1.35C159.74,226.68,159.66,226.23,159.5,225.8z"/>
	<path d="M175.77,231.27c-0.29,0.19-0.61,0.35-0.95,0.49c-0.34,0.14-0.71,0.25-1.1,0.33c-0.39,0.08-0.8,0.12-1.23,0.12
		c-0.77,0-1.46-0.13-2.09-0.38c-0.63-0.26-1.16-0.61-1.6-1.06c-0.44-0.45-0.79-0.99-1.03-1.6c-0.24-0.62-0.36-1.28-0.36-2
		c0-0.69,0.12-1.34,0.37-1.96c0.25-0.62,0.59-1.16,1.04-1.62s0.98-0.83,1.6-1.1c0.62-0.27,1.3-0.41,2.04-0.41
		c0.43,0,0.82,0.03,1.17,0.09c0.35,0.06,0.67,0.15,0.97,0.26c0.3,0.11,0.58,0.25,0.85,0.41c0.27,0.16,0.52,0.35,0.78,0.57l-1.09,1.3
		c-0.19-0.16-0.38-0.3-0.57-0.43c-0.2-0.13-0.4-0.24-0.62-0.33c-0.21-0.09-0.45-0.16-0.71-0.21c-0.26-0.05-0.54-0.08-0.85-0.08
		c-0.45,0-0.87,0.09-1.25,0.27c-0.39,0.18-0.72,0.43-1.01,0.75c-0.28,0.32-0.51,0.69-0.67,1.11s-0.25,0.87-0.25,1.35
		c0,0.5,0.08,0.97,0.24,1.4c0.16,0.43,0.38,0.8,0.68,1.12c0.29,0.31,0.64,0.56,1.05,0.74c0.41,0.18,0.86,0.27,1.37,0.27
		c0.47,0,0.9-0.07,1.31-0.2c0.41-0.14,0.76-0.32,1.06-0.54v-1.84h-2.51v-1.5h4.17v4.12C176.33,230.89,176.06,231.08,175.77,231.27z"
		/>
	<path d="M189.3,232.04l-2.42-3.42h-2.16v3.42h-1.71v-9.8h4.37c0.56,0,1.07,0.07,1.52,0.22c0.45,0.14,0.83,0.35,1.15,0.62
		c0.31,0.27,0.55,0.59,0.72,0.98c0.17,0.39,0.25,0.82,0.25,1.29c0,0.41-0.06,0.78-0.17,1.1c-0.12,0.32-0.28,0.61-0.48,0.85
		c-0.21,0.25-0.45,0.46-0.74,0.63c-0.29,0.17-0.6,0.31-0.95,0.4l2.65,3.71H189.3z M188.74,224.21c-0.36-0.28-0.86-0.42-1.5-0.42
		h-2.51v3.3h2.53c0.62,0,1.11-0.15,1.47-0.45c0.36-0.3,0.55-0.7,0.55-1.21C189.27,224.89,189.09,224.48,188.74,224.21z"/>
	<path d="M206.71,232.04h-1.82l-0.99-2.37h-4.63l-1.01,2.37h-1.76l4.31-9.87h1.6L206.71,232.04z M201.58,224.23l-1.68,3.92h3.37
		L201.58,224.23z"/>
	<path d="M217.42,229.63h-0.06l-3.07-4.59v7h-1.71v-9.8h1.83l2.98,4.63l2.98-4.63h1.83v9.8h-1.71v-7.03L217.42,229.63z"/>
</g>
<g id="Journal_1_">
	<g id="Program">
		<linearGradient id="SVGID_1_" gradientUnits="userSpaceOnUse" x1="59.8062" y1="81.3134" x2="104.804" y2="81.3134">
			<stop  offset="4.984026e-07" style="stop-color:#4062BB"/>
			<stop  offset="1" style="stop-color:#1F0322"/>
		</linearGradient>
		<path class="st0" d="M104.8,8.55c0.13,21.73-2.16,60.23-19.39,100.84c-8.07,19.03-17.42,33.78-25.6,44.68"/>
		<linearGradient id="SVGID_2_" gradientUnits="userSpaceOnUse" x1="21.3062" y1="104.4609" x2="143.304" y2="104.4609">
			<stop  offset="2.492013e-07" style="stop-color:#0091AD"/>
			<stop  offset="0.1306" style="stop-color:#0288A4"/>
			<stop  offset="0.3435" style="stop-color:#07708C"/>
			<stop  offset="0.6124" style="stop-color:#104866"/>
			<stop  offset="0.9238" style="stop-color:#1C1130"/>
			<stop  offset="1" style="stop-color:#1F0322"/>
		</linearGradient>
		<path class="st1" d="M107.69,8.54c3.04,13.03,5.18,26.49,6.28,40.26c0.6,6.89,0.8,13.85,0.86,20.89
			c-0.03,3.51-0.03,7.05-0.22,10.59c-0.08,1.77-0.12,3.56-0.25,5.33l-0.39,5.35c-0.11,1.79-0.31,3.58-0.5,5.37l-0.59,5.39
			c-0.53,3.57-0.97,7.2-1.62,10.8c-1.24,7.21-2.75,14.47-4.69,21.69c-3.83,14.46-9.11,28.89-15.97,42.99l-1.47,3.02
			c-9.65,19.83-33.55,28.09-53.39,18.44S7.65,165.09,17.3,145.26c2.8-5.76,6.96-10.65,11.72-14.3c8.64-6.58,16.88-14.29,24.49-22.99
			c3.83-4.34,7.43-8.96,10.92-13.77c1.77-2.39,3.38-4.89,5.1-7.38L71.93,83c0.81-1.28,1.63-2.56,2.37-3.88l2.31-3.96
			c0.78-1.32,1.47-2.68,2.21-4.04c1.5-2.7,2.84-5.47,4.24-8.26c2.67-5.61,5.27-11.36,7.54-17.28c4.62-11.82,8.41-24.22,11.31-37.02
			l0-0.01c0.36-1.6,1.95-2.6,3.55-2.24C106.6,6.57,107.44,7.47,107.69,8.54z"/>
	</g>
</g>
<g id="Journal_2_">
	<g id="Program_2_">
		<path class="st2" d="M135.81,202.07c-0.13-21.73,2.16-60.23,19.39-100.84c8.07-19.03,17.42-33.78,25.6-44.68"/>
		<linearGradient id="SVGID_3_" gradientUnits="userSpaceOnUse" x1="96.3062" y1="105.371" x2="220.304" y2="105.371">
			<stop  offset="6.230033e-07" style="stop-color:#0091AD"/>
			<stop  offset="0.0762" style="stop-color:#03839F"/>
			<stop  offset="0.3876" style="stop-color:#0F4C69"/>
			<stop  offset="0.6565" style="stop-color:#182443"/>
			<stop  offset="0.8694" style="stop-color:#1D0C2B"/>
			<stop  offset="1" style="stop-color:#1F0322"/>
		</linearGradient>
		<path class="st3" d="M132.84,202.09c-3.12-13.04-5.33-26.51-6.51-40.3c-0.63-6.9-0.88-13.87-0.97-20.93
			c0.02-3.52,0-7.07,0.17-10.62c0.08-1.78,0.1-3.57,0.23-5.35l0.37-5.37c0.11-1.8,0.29-3.59,0.48-5.39l0.56-5.41
			c0.51-3.58,0.94-7.23,1.57-10.84c1.21-7.25,2.69-14.53,4.61-21.79c3.78-14.54,9.03-29.05,15.86-43.25l1.58-3.27
			c9.84-20.43,34.39-29.02,54.82-19.18s29.02,34.39,19.18,54.82c-2.94,6.1-7.34,11.25-12.4,15.06c-8.66,6.48-16.94,14.1-24.6,22.73
			c-3.85,4.3-7.49,8.88-11,13.66c-1.79,2.38-3.41,4.86-5.15,7.33l-2.43,3.8c-0.82,1.27-1.64,2.55-2.4,3.86l-2.33,3.94
			c-0.78,1.32-1.48,2.67-2.23,4.02c-1.52,2.69-2.88,5.45-4.29,8.23c-2.71,5.59-5.34,11.32-7.65,17.23
			c-4.7,11.8-8.56,24.18-11.53,36.98l0,0.02c-0.38,1.64-2.02,2.66-3.66,2.28C133.95,204.08,133.1,203.18,132.84,202.09z"/>
	</g>
</g>
<g>
</g>
<g>
</g>
<g>
</g>
<g>
</g>
<g>
</g>
<g>
</g>
<g>
</g>
<g>
</g>
<g>
</g>
<g>
</g>
<g>
</g>
<g>
</g>
<g>
</g>
<g>
</g>
<g>
</g>
</svg>
