<?xml version="1.0" encoding="utf-8"?>
<!-- Generator: Adobe Illustrator 25.3.0, SVG Export Plug-In . SVG Version: 6.00 Build 0)  -->
<svg version="1.1" id="Capa_1" xmlns="http://www.w3.org/2000/svg" xmlns:xlink="http://www.w3.org/1999/xlink" x="0px" y="0px"
	 viewBox="0 0 240 240" style="enable-background:new 0 0 240 240;" xml:space="preserve">
<style type="text/css">
	.st0{fill:url(#SVGID_1_);}
	.st1{fill:url(#SVGID_2_);}
	.st2{fill:#009540;}
	.st3{fill:url(#SVGID_3_);}
</style>
<g id="Journal_1_">
	<g id="Program">
		<linearGradient id="SVGID_1_" gradientUnits="userSpaceOnUse" x1="59.8062" y1="96.3134" x2="104.804" y2="96.3134">
			<stop  offset="4.984026e-07" style="stop-color:#4062BB"/>
			<stop  offset="1" style="stop-color:#1F0322"/>
		</linearGradient>
		<path class="st0" d="M104.8,23.55c0.13,21.73-2.16,60.23-19.39,100.84c-8.07,19.03-17.42,33.78-25.6,44.68"/>
		<linearGradient id="SVGID_2_" gradientUnits="userSpaceOnUse" x1="21.3062" y1="119.4609" x2="143.304" y2="119.4609">
			<stop  offset="2.492013e-07" style="stop-color:#0091AD"/>
			<stop  offset="0.1306" style="stop-color:#0288A4"/>
			<stop  offset="0.3435" style="stop-color:#07708C"/>
			<stop  offset="0.6124" style="stop-color:#104866"/>
			<stop  offset="0.9238" style="stop-color:#1C1130"/>
			<stop  offset="1" style="stop-color:#1F0322"/>
		</linearGradient>
		<path class="st1" d="M107.69,23.54c3.04,13.03,5.18,26.49,6.28,40.26c0.6,6.89,0.8,13.85,0.86,20.89
			c-0.03,3.51-0.03,7.05-0.22,10.59c-0.08,1.77-0.12,3.56-0.25,5.33l-0.39,5.35c-0.11,1.79-0.31,3.58-0.5,5.37l-0.59,5.39
			c-0.53,3.57-0.97,7.2-1.62,10.8c-1.24,7.21-2.75,14.47-4.69,21.69c-3.83,14.46-9.11,28.89-15.97,42.99l-1.47,3.02
			c-9.65,19.83-33.55,28.09-53.39,18.44S7.65,180.09,17.3,160.26c2.8-5.76,6.96-10.65,11.72-14.3c8.64-6.58,16.88-14.29,24.49-22.99
			c3.83-4.34,7.43-8.96,10.92-13.77c1.77-2.39,3.38-4.89,5.1-7.38L71.93,98c0.81-1.28,1.63-2.56,2.37-3.88l2.31-3.96
			c0.78-1.32,1.47-2.68,2.21-4.04c1.5-2.7,2.84-5.47,4.24-8.26c2.67-5.61,5.27-11.36,7.54-17.28c4.62-11.82,8.41-24.22,11.31-37.02
			l0-0.01c0.36-1.6,1.95-2.6,3.55-2.24C106.6,21.57,107.44,22.47,107.69,23.54z"/>
	</g>
</g>
<g id="Journal_2_">
	<g id="Program_2_">
		<path class="st2" d="M135.81,217.07c-0.13-21.73,2.16-60.23,19.39-100.84c8.07-19.03,17.42-33.78,25.6-44.68"/>
		<linearGradient id="SVGID_3_" gradientUnits="userSpaceOnUse" x1="96.3062" y1="120.371" x2="220.304" y2="120.371">
			<stop  offset="6.230033e-07" style="stop-color:#0091AD"/>
			<stop  offset="0.0762" style="stop-color:#03839F"/>
			<stop  offset="0.3876" style="stop-color:#0F4C69"/>
			<stop  offset="0.6565" style="stop-color:#182443"/>
			<stop  offset="0.8694" style="stop-color:#1D0C2B"/>
			<stop  offset="1" style="stop-color:#1F0322"/>
		</linearGradient>
		<path class="st3" d="M132.84,217.09c-3.12-13.04-5.33-26.51-6.51-40.3c-0.63-6.9-0.88-13.87-0.97-20.93
			c0.02-3.52,0-7.07,0.17-10.62c0.08-1.78,0.1-3.57,0.23-5.35l0.37-5.37c0.11-1.8,0.29-3.59,0.48-5.39l0.56-5.41
			c0.51-3.58,0.94-7.23,1.57-10.84c1.21-7.25,2.69-14.53,4.61-21.79c3.78-14.54,9.03-29.05,15.86-43.25l1.58-3.27
			c9.84-20.43,34.39-29.02,54.82-19.18s29.02,34.39,19.18,54.82c-2.94,6.1-7.34,11.25-12.4,15.06c-8.66,6.48-16.94,14.1-24.6,22.73
			c-3.85,4.3-7.49,8.88-11,13.66c-1.79,2.38-3.41,4.86-5.15,7.33l-2.43,3.8c-0.82,1.27-1.64,2.55-2.4,3.86l-2.33,3.94
			c-0.78,1.32-1.48,2.67-2.23,4.02c-1.52,2.69-2.88,5.45-4.29,8.23c-2.71,5.59-5.34,11.32-7.65,17.23
			c-4.7,11.8-8.56,24.18-11.53,36.98l0,0.02c-0.38,1.64-2.02,2.66-3.66,2.28C133.95,219.08,133.1,218.18,132.84,217.09z"/>
	</g>
</g>
</svg>
