<?xml version="1.0" encoding="utf-8"?>
<!-- Generator: Adobe Illustrator 25.3.0, SVG Export Plug-In . SVG Version: 6.00 Build 0)  -->
<svg version="1.1" id="Capa_1" xmlns="http://www.w3.org/2000/svg" xmlns:xlink="http://www.w3.org/1999/xlink" x="0px" y="0px"
	 viewBox="0 0 240 240" style="enable-background:new 0 0 240 240;" xml:space="preserve">
<style type="text/css">
	.st0{fill:#246B60;}
	.st1{fill:#ED6A5A;}
	.st2{fill:#FFFFFF;}
	.st3{fill:#FFFAFB;}
</style>
<g>
	<g>
		<path class="st0" d="M121.19,105.95c-4.14,1.7-8.59,1.54-12.96,1.96c-3.65,0.35-8.69,0.92-9.46,5.32c-0.67,3.83,1.83,7,4.93,8.88
			c3.02,1.83,8.09,3.07,9.14,6.96c0.54,2.01-0.64,3.94-1.74,5.53c-1.36,1.97-2.85,3.86-4.28,5.77c-2.61,3.5-5.84,7.09-6.89,11.44
			c-0.9,3.68-0.08,7.76,3.06,10.12c3.24,2.44,7.81,2.56,11.69,2.74c2.71,0.12,5.43,0.1,8.14-0.07c2.42-0.16,4.89-0.44,7.16-1.35
			c4.18-1.67,7.44-5.62,6.56-10.31c-0.36-1.9-3.25-1.09-2.89,0.8c0.71,3.81-3.12,6.4-6.3,7.22c-3.89,1-8.2,0.89-12.19,0.73
			c-3.34-0.13-7.73-0.06-10.5-2.24c-2.81-2.22-2.38-6.29-0.99-9.18c1.78-3.69,4.65-6.92,7.09-10.19c2.17-2.92,5.32-6.21,5.22-10.11
			c-0.09-3.47-2.71-6.08-5.54-7.72c-2.81-1.64-7.03-2.69-8.39-5.97c-0.58-1.39-0.65-3.23,0.76-4.13c1.7-1.08,4.34-1.15,6.29-1.31
			c4.34-0.35,8.8-0.31,12.89-1.99C123.75,108.11,122.97,105.21,121.19,105.95L121.19,105.95z"/>
	</g>
</g>
<path class="st1" d="M199.89,23.5C199.89,23.5,199.89,23.5,199.89,23.5c0,11.56-9.38,20.94-20.94,20.94s-20.94-9.38-20.94-20.94
	c0,0,0,0,0,0H82.62c0,0,0,0,0,0c0,11.56-9.38,20.94-20.94,20.94S40.74,35.06,40.74,23.5c0,0,0,0,0,0c0,0-34.4,0-34.4,0v83.76h23.39
	c0-13.89,10.13-25.14,22.62-25.14s22.62,11.26,22.62,25.14h23.45c0-13.89,10.13-25.14,22.62-25.14s22.62,11.26,22.62,25.14h25.97
	c0-13.89,10.13-25.14,22.62-25.14s22.62,11.26,22.62,25.14h18.49V23.5L199.89,23.5z"/>
<path class="st2" d="M6.4,72.92v119.77c0,14.81,11.25,26.81,25.13,26.81h176.74c13.88,0,25.13-12,25.13-26.81V72.92H6.4z"/>
<circle class="st0" cx="120.94" cy="136.79" r="48.79"/>
<g>
	<path class="st0" d="M98.64,198.98c-1.05-0.77-2-1.31-3.03-1.67c-1.02-0.35-2.07-0.54-3.19-0.59c-2.21-0.1-4.62,0.31-6.94,0.85
		c-2.31,0.55-4.51,1.23-6.15,1.77c-1.63,0.53-2.7,0.94-2.7,0.94s1.04,0.59,2.72,1.29c1.68,0.7,4,1.49,6.54,1.92
		c2.52,0.43,5.27,0.48,7.67-0.19C95.94,202.65,97.96,201.23,98.64,198.98z"/>
	<path class="st0" d="M91.57,189c0.9,1.97,2.21,3.89,3.92,5.14c0.86,0.62,1.81,1.09,2.83,1.28c1.02,0.2,2.12,0.14,3.18-0.29
		c0.06-2.35-0.6-4.21-1.64-5.85c-1.04-1.62-2.51-3.02-4.03-4.22c-1.52-1.2-3.08-2.2-4.25-2.93c-1.17-0.71-1.97-1.13-1.97-1.13
		s0.01,0.25,0.05,0.7c0.04,0.44,0.12,1.06,0.25,1.82C90.17,185.02,90.67,187.04,91.57,189z"/>
	<path class="st0" d="M74.95,194.25c2.31-0.11,4.36-0.97,5.8-2.85c-1.15-2-2.89-3.08-4.98-3.71c-2.09-0.62-4.52-0.79-6.91-0.87
		c-2.39-0.06-4.75-0.01-6.53,0c-1.82,0.03-2.97,0.05-2.97,0.05s0.22,0.24,0.63,0.63c0.41,0.37,1.01,0.92,1.77,1.52
		c1.5,1.21,3.63,2.61,5.98,3.65C70.07,193.7,72.64,194.36,74.95,194.25z"/>
	<path class="st0" d="M79.35,185.36c1.31,1.62,3.15,2.69,5.43,2.57c0.93-2.16,0.77-4.23,0.14-6.13c-0.63-1.89-1.74-3.63-2.87-5.14
		c-1.13-1.51-2.28-2.8-3.12-3.72c-0.41-0.47-0.77-0.84-1.02-1.09c-0.23-0.26-0.38-0.4-0.38-0.4s-0.08,0.23-0.19,0.65
		c-0.11,0.42-0.24,1.02-0.36,1.75c-0.25,1.48-0.35,3.49-0.04,5.61C77.26,181.57,78.04,183.74,79.35,185.36z"/>
	<path class="st0" d="M51.03,169.22c-1.64-0.5-2.7-0.8-2.7-0.8s0.1,0.27,0.31,0.71c0.22,0.44,0.55,1.06,0.97,1.79
		c0.42,0.73,0.94,1.59,1.54,2.48c0.3,0.45,0.62,0.9,0.96,1.36l0.26,0.35l0.34,0.43c0.23,0.29,0.46,0.57,0.69,0.85
		c1.92,2.22,4.29,3.92,6.61,4.63c2.33,0.73,4.59,0.49,6.51-0.92c-0.54-2.25-1.84-3.79-3.59-5.12c-0.43-0.34-0.91-0.65-1.39-0.97
		c-0.48-0.32-0.99-0.62-1.52-0.92c-0.52-0.32-1.05-0.62-1.6-0.92c-0.51-0.28-1.03-0.52-1.55-0.77
		C54.8,170.46,52.66,169.73,51.03,169.22z"/>
	<path class="st0" d="M67.09,173.21c0.62,1.94,2.06,3.54,4.25,4.03c1.52-1.82,2.01-3.8,2.13-5.68c0.11-1.88-0.14-3.66-0.35-5.15
		c-0.07-0.63-0.33-1.7-0.57-2.53c-0.24-0.86-0.52-1.64-0.76-2.28c-0.24-0.65-0.48-1.18-0.64-1.55c-0.14-0.37-0.23-0.58-0.23-0.58
		s-0.16,0.21-0.41,0.59c-0.26,0.39-0.58,0.93-0.94,1.6c-0.72,1.35-1.6,3.24-2.2,5.33c-0.16,0.52-0.29,1.06-0.4,1.6
		c-0.1,0.5-0.18,1.02-0.23,1.55c-0.03,0.52-0.01,1.04,0.04,1.56C66.82,172.22,66.94,172.72,67.09,173.21z"/>
	<path class="st0" d="M48.51,161.33c0.38,0.45,0.82,0.85,1.27,1.22c0.45,0.37,0.91,0.71,1.39,1.01c1.91,1.19,4.03,1.7,6.34,1.04
		c0.19-1.12,0.11-2.15-0.19-3.1c-0.16-0.47-0.36-0.93-0.62-1.37c-0.25-0.44-0.57-0.86-0.87-1.28c-1.24-1.68-3.15-3.13-5.08-4.42
		c-1.87-1.31-3.85-2.43-5.35-3.24c-1.54-0.8-2.51-1.3-2.51-1.3s0.04,0.28,0.17,0.77c0.14,0.49,0.35,1.17,0.63,1.98
		c0.57,1.63,1.37,3.82,2.7,5.82C47.02,159.46,47.73,160.45,48.51,161.33z"/>
	<path class="st0" d="M60.99,160.45c0.45,0.88,1.11,1.66,2.03,2.29c2.09-1.17,3.29-2.92,3.92-4.81c0.16-0.47,0.28-0.96,0.38-1.45
		c0.05-0.24,0.09-0.49,0.12-0.74c0.04-0.25,0.08-0.5,0.12-0.75c0.13-1,0.17-2.01,0.13-2.97c-0.13-1.92-0.25-3.73-0.5-5.04
		c-0.12-0.66-0.24-1.2-0.32-1.58c-0.06-0.37-0.11-0.59-0.11-0.59s-0.19,0.17-0.51,0.49c-0.33,0.32-0.75,0.78-1.24,1.36
		c-0.98,1.17-2.2,2.84-3.2,4.77c-0.94,1.92-1.55,4.09-1.53,6.15c-0.01,0.52,0.08,1.01,0.21,1.49
		C60.59,159.55,60.76,160.01,60.99,160.45z"/>
	<path class="st0" d="M44.5,142.83c0.29,0.52,0.6,1.02,0.95,1.48c0.37,0.46,0.76,0.88,1.17,1.27c1.65,1.56,3.64,2.45,6.03,2.23
		c0.41-1.06,0.53-2.08,0.42-3.06c-0.06-0.49-0.17-0.98-0.33-1.46c-0.15-0.48-0.32-0.96-0.54-1.42c-0.44-0.94-1.05-1.86-1.76-2.76
		c-0.36-0.44-0.73-0.89-1.09-1.33c-0.37-0.44-0.75-0.87-1.14-1.28c-1.56-1.68-3.3-3.22-4.5-4.37c-1.24-1.14-2.11-1.87-2.11-1.87
		s-0.03,1.16,0.07,2.91c0.06,0.87,0.25,1.89,0.45,2.98c0.11,0.54,0.23,1.1,0.37,1.67c0.14,0.57,0.29,1.15,0.51,1.71
		C43.41,140.67,43.91,141.79,44.5,142.83z"/>
	<path class="st0" d="M58.35,146.56c2.28-0.77,3.8-2.24,4.81-3.93c0.25-0.43,0.47-0.86,0.66-1.31c0.22-0.45,0.41-0.91,0.58-1.37
		c0.33-0.92,0.57-1.87,0.73-2.78c0.18-0.91,0.37-1.8,0.47-2.62c0.05-0.42,0.09-0.81,0.12-1.18c0.02-0.37,0.04-0.72,0.09-1.04
		c0.14-1.28,0.13-2.12,0.13-2.12s-0.88,0.47-2.15,1.36c-0.31,0.22-0.65,0.47-1.01,0.74c-0.36,0.28-0.72,0.58-1.07,0.9
		c-0.71,0.65-1.43,1.39-2.12,2.21c-0.34,0.41-0.67,0.84-0.99,1.29c-0.16,0.22-0.31,0.45-0.45,0.68c-0.13,0.23-0.26,0.47-0.37,0.7
		c-0.47,0.95-0.84,1.94-1.04,2.94c-0.09,0.5-0.16,1-0.15,1.48c0.03,0.49,0.11,0.97,0.24,1.44C57.08,144.9,57.57,145.79,58.35,146.56
		z"/>
	<path class="st0" d="M50.05,118.48c-0.53-1-1.11-1.98-1.67-2.88c-0.58-0.91-1.1-1.74-1.53-2.44c-0.9-1.41-1.55-2.32-1.55-2.32
		s-0.34,1.1-0.7,2.82c-0.13,0.87-0.26,1.89-0.34,2.99c-0.05,0.55-0.08,1.12-0.09,1.71c0,0.59,0.04,1.19,0.09,1.79
		c0.11,1.21,0.26,2.42,0.58,3.57c0.35,1.15,0.81,2.24,1.4,3.19c1.13,1.91,2.96,3.22,5.33,3.55c0.31-0.47,0.54-0.94,0.72-1.42
		c0.17-0.48,0.33-0.96,0.4-1.44c0.16-0.97,0.09-1.97-0.15-2.99c-0.21-1.01-0.52-2.04-0.98-3.07
		C51.12,120.52,50.56,119.48,50.05,118.48z"/>
	<path class="st0" d="M62.95,127.35c0.72-0.68,1.32-1.45,1.84-2.25c0.56-0.8,1.06-1.62,1.46-2.44c0.21-0.41,0.37-0.82,0.56-1.22
		c0.2-0.4,0.37-0.78,0.53-1.16c0.32-0.75,0.55-1.45,0.76-2.05c0.47-1.19,0.68-1.99,0.68-1.99s-0.98,0.23-2.43,0.76
		c-1.49,0.52-3.28,1.4-5.06,2.63c-0.44,0.31-0.9,0.64-1.29,1c-0.39,0.35-0.77,0.73-1.13,1.12c-0.71,0.79-1.36,1.65-1.78,2.56
		c-0.4,0.92-0.63,1.88-0.62,2.84c0.01,0.48,0.04,0.96,0.2,1.44c0.16,0.48,0.39,0.95,0.69,1.41
		C59.75,129.79,61.48,128.72,62.95,127.35z"/>
	<path class="st0" d="M55.96,112.34c0.32-0.41,0.57-0.83,0.77-1.28c0.2-0.45,0.35-0.92,0.45-1.41c0.1-0.48,0.14-0.99,0.19-1.49
		c0.08-1.02,0-2.1-0.17-3.2c-0.17-1.1-0.37-2.2-0.66-3.31c-0.58-2.21-1.21-4.29-1.77-5.87c-0.56-1.59-0.95-2.6-0.95-2.6
		s-0.16,0.24-0.4,0.68c-0.23,0.44-0.56,1.08-0.92,1.87c-0.76,1.55-1.52,3.77-2.01,6.09c-0.2,1.18-0.32,2.4-0.33,3.57
		c-0.01,0.58,0.05,1.18,0.14,1.75c0.09,0.57,0.21,1.13,0.37,1.65c0.33,1.06,0.79,2.01,1.51,2.82c0.71,0.81,1.61,1.46,2.72,1.92
		C55.32,113.15,55.67,112.76,55.96,112.34z"/>
	<path class="st0" d="M74.86,103.93c0.21-0.31,0.31-0.49,0.31-0.49s-0.26,0-0.71,0.02c-0.46,0.01-1.08,0.06-1.84,0.15
		c-0.76,0.09-1.65,0.23-2.61,0.45c-0.47,0.11-0.99,0.23-1.48,0.37c-0.49,0.15-0.98,0.32-1.48,0.52c-0.99,0.39-2.02,0.85-2.91,1.43
		c-0.88,0.59-1.69,1.27-2.36,2.03c-0.34,0.38-0.6,0.79-0.83,1.22c-0.22,0.43-0.4,0.88-0.52,1.34c-0.12,0.46-0.19,0.94-0.18,1.43
		c0.03,0.5,0.12,1.01,0.29,1.52c1.18,0.19,2.28,0.14,3.28-0.08c1-0.22,1.97-0.58,2.83-1.07c0.43-0.24,0.84-0.5,1.23-0.79
		c0.2-0.14,0.38-0.29,0.57-0.45c0.19-0.15,0.39-0.3,0.57-0.46c0.75-0.63,1.42-1.32,2.01-2.01c0.64-0.68,1.21-1.37,1.69-2.03
		c0.12-0.16,0.24-0.33,0.35-0.49c0.12-0.16,0.23-0.31,0.35-0.46c0.22-0.3,0.43-0.59,0.61-0.85
		C74.39,104.71,74.66,104.25,74.86,103.93z"/>
	<path class="st0" d="M62.45,98.07c1.02-0.5,1.79-1.17,2.38-1.96c0.62-0.76,1.04-1.66,1.33-2.64c0.62-1.94,0.72-4.25,0.7-6.48
		c-0.01-0.56-0.04-1.13-0.07-1.67c-0.02-0.54-0.05-1.07-0.09-1.59c-0.08-1.03-0.18-1.99-0.28-2.81c-0.17-1.62-0.36-2.71-0.36-2.71
		s-0.19,0.21-0.52,0.58c-0.33,0.37-0.8,0.9-1.31,1.58c-0.51,0.68-1.11,1.48-1.67,2.41c-0.55,0.92-1.13,1.93-1.6,3.01
		c-0.46,1.09-0.88,2.21-1.13,3.35c-0.25,1.15-0.37,2.29-0.32,3.38C59.65,94.7,60.53,96.66,62.45,98.07z"/>
	<path class="st0" d="M79.19,96.89c0.77-0.55,1.5-1.1,2.13-1.65c0.64-0.55,1.23-1.05,1.7-1.51c0.47-0.46,0.87-0.83,1.14-1.1
		c0.27-0.27,0.41-0.43,0.41-0.43s-1-0.22-2.55-0.37c-0.77-0.07-1.67-0.11-2.65-0.1c-0.98,0-2.05,0.07-3.1,0.23
		c-2.14,0.31-4.3,1.01-5.95,2.2c-0.8,0.61-1.47,1.33-1.94,2.16c-0.44,0.85-0.67,1.82-0.62,2.89c2.22,0.94,4.31,0.86,6.22,0.32
		c0.97-0.27,1.89-0.65,2.74-1.12C77.6,97.96,78.44,97.44,79.19,96.89z"/>
	<path class="st0" d="M74.93,185.02c6.3,5.08,13.98,8.56,21.53,11.53c6.17,2.42,14.09,6.39,22.15,10.08
		c-7.25,2.2-14.4,3.99-20.15,4.93c-0.75,0.12,3.12,3.95,3.84,3.74c6.68-1.96,13.45-4.33,20.13-6.95c7.3,3.22,14.5,5.99,20.43,6.96
		c0.74,0.12,3.06-3.75,2.32-3.87c-5.62-0.91-12.15-2.54-18.95-4.61c11.2-4.58,21.97-9.75,31.29-14.69
		c10.12-5.36,17.71-12.97,22.71-23.1c4.62-9.37,7.89-19.73,8.37-30.14c0.66-14.42-4.31-28.56-12.02-40.71
		c-2.26-3.56-4.79-7.11-7.59-10.4c0.24-0.92,0.27-1.81,0.11-2.65c-0.19-0.99-0.59-1.94-1.19-2.8c-1.18-1.75-3.08-3.15-5.02-4.2
		c-1.96-1.04-4-1.7-5.52-2.05c-0.76-0.18-1.39-0.28-1.83-0.35c-0.22-0.02-0.4-0.04-0.51-0.05c-0.1,0-0.16,0-0.16,0
		s0.02,0.05,0.07,0.15c0.05,0.1,0.13,0.25,0.22,0.44c0.2,0.38,0.49,0.92,0.85,1.57c0.72,1.3,1.71,3.02,2.88,4.69
		c0.58,0.85,1.23,1.65,1.91,2.41c0.34,0.38,0.7,0.73,1.08,1.06c0.37,0.34,0.75,0.65,1.15,0.92c0.82,0.54,1.68,0.99,2.65,1.23
		c0.73,0.18,1.5,0.26,2.33,0.21c5.38,6.19,9.78,13.38,13.13,20.59c4.27,9.19,6.55,19.21,6.3,29.3c-0.27,11-4.04,22.17-9.11,31.94
		c-3.95,7.61-9.69,13.81-17.04,18.43c-6.58,4.14-13.79,7.24-20.95,10.26c-5.37,2.26-11.75,4.58-18.21,6.65
		c-13.84-4.5-28.31-10.58-38.33-16.09c-5.24-2.88-9.99-6.4-13.91-10.86c-3.92-4.45-6.75-9.73-9.02-15.13
		c-4.31-10.23-7.03-20.83-6.36-31.96c0.78-12.97,6.01-25.38,13.31-36.13c1.87-2.76,3.9-5.5,6.1-8.1c0.8,0.04,1.54-0.04,2.25-0.21
		c0.97-0.24,1.82-0.68,2.65-1.22c0.4-0.28,0.79-0.59,1.16-0.92c0.38-0.33,0.74-0.69,1.08-1.06c0.68-0.77,1.33-1.56,1.91-2.41
		c1.16-1.67,2.15-3.39,2.87-4.69c0.36-0.65,0.65-1.19,0.85-1.57c0.1-0.19,0.17-0.33,0.23-0.44c0.04-0.09,0.06-0.14,0.06-0.14
		s-0.06,0-0.16,0c-0.11,0.01-0.28,0.03-0.5,0.06c-0.44,0.06-1.08,0.17-1.83,0.35c-1.52,0.36-3.56,1.01-5.51,2.05
		c-1.95,1.05-3.85,2.46-5.02,4.21c-0.61,0.86-1.01,1.81-1.19,2.8c-0.16,0.82-0.13,1.69,0.1,2.59c-5.14,5.95-9.4,12.81-12.7,19.68
		c-4.08,8.49-6.54,17.67-6.91,27.04c-0.42,10.77,2.58,21.09,6.74,30.97C63.32,172.27,68.09,179.5,74.93,185.02z"/>
	<path class="st0" d="M155.96,204.58c2.53-0.42,4.86-1.21,6.54-1.91c1.68-0.7,2.72-1.29,2.72-1.29s-1.07-0.41-2.71-0.95
		c-1.64-0.54-3.84-1.22-6.15-1.77c-2.32-0.54-4.72-0.95-6.93-0.85c-1.12,0.04-2.17,0.23-3.19,0.58c-1.02,0.36-1.98,0.9-3.03,1.67
		c0.68,2.25,2.7,3.67,5.08,4.32C150.69,205.07,153.44,205.01,155.96,204.58z"/>
	<path class="st0" d="M143.52,196.51c1.02-0.19,1.97-0.66,2.83-1.28c1.71-1.26,3.02-3.17,3.92-5.14c0.9-1.96,1.4-3.98,1.66-5.49
		c0.13-0.75,0.2-1.38,0.25-1.82c0.04-0.44,0.05-0.7,0.05-0.7s-0.8,0.42-1.97,1.13c-1.17,0.72-2.73,1.73-4.25,2.93
		c-1.52,1.2-2.99,2.61-4.04,4.22c-1.03,1.63-1.69,3.49-1.63,5.84C141.4,196.66,142.5,196.71,143.52,196.51z"/>
	<path class="st0" d="M172.99,187.92c-2.39,0.08-4.83,0.24-6.91,0.86c-2.09,0.63-3.83,1.71-4.98,3.7c1.43,1.88,3.48,2.75,5.8,2.86
		c2.31,0.11,4.87-0.55,7.22-1.58c2.35-1.04,4.48-2.44,5.98-3.65c0.76-0.59,1.36-1.14,1.77-1.52c0.41-0.39,0.64-0.63,0.64-0.63
		s-1.15-0.02-2.97-0.05C177.75,187.9,175.38,187.85,172.99,187.92z"/>
	<path class="st0" d="M157.07,189.03c2.28,0.12,4.12-0.95,5.42-2.57c1.31-1.62,2.09-3.78,2.41-5.89c0.32-2.11,0.21-4.14-0.04-5.61
		c-0.12-0.74-0.25-1.33-0.36-1.75c-0.11-0.42-0.19-0.65-0.19-0.65s-0.14,0.14-0.38,0.39c-0.25,0.26-0.6,0.63-1.02,1.09
		c-0.85,0.93-2,2.22-3.13,3.73c-1.12,1.51-2.23,3.25-2.86,5.14C156.3,184.8,156.14,186.87,157.07,189.03z"/>
	<path class="st0" d="M188.44,177.49c0.24-0.28,0.47-0.57,0.7-0.85l0.33-0.44l0.26-0.35c0.34-0.46,0.66-0.91,0.96-1.36
		c0.6-0.89,1.12-1.74,1.54-2.47c0.42-0.74,0.75-1.36,0.97-1.79c0.21-0.44,0.31-0.71,0.31-0.71s-1.06,0.3-2.7,0.8
		c-1.63,0.51-3.77,1.24-5.86,2.2c-0.52,0.24-1.04,0.49-1.55,0.77c-0.55,0.3-1.09,0.61-1.6,0.92c-0.52,0.31-1.04,0.61-1.51,0.93
		c-0.48,0.32-0.96,0.63-1.39,0.97c-1.75,1.33-3.06,2.86-3.59,5.12c1.93,1.41,4.19,1.65,6.51,0.92
		C184.16,181.41,186.52,179.71,188.44,177.49z"/>
	<path class="st0" d="M174.49,168.08c-0.6-2.09-1.48-3.98-2.21-5.32c-0.37-0.68-0.68-1.22-0.94-1.6c-0.25-0.38-0.4-0.59-0.4-0.59
		s-0.09,0.21-0.23,0.58c-0.16,0.37-0.39,0.9-0.64,1.55c-0.25,0.65-0.52,1.42-0.76,2.28c-0.24,0.83-0.5,1.9-0.57,2.53
		c-0.21,1.49-0.46,3.27-0.35,5.16c0.13,1.87,0.61,3.86,2.14,5.67c2.19-0.5,3.63-2.09,4.25-4.03c0.14-0.49,0.27-0.99,0.32-1.51
		c0.04-0.52,0.07-1.04,0.04-1.57c-0.04-0.52-0.12-1.04-0.23-1.55C174.77,169.14,174.64,168.6,174.49,168.08z"/>
	<path class="st0" d="M198.79,151.74c0.12-0.49,0.17-0.77,0.17-0.77s-0.97,0.5-2.51,1.31c-1.51,0.81-3.48,1.93-5.35,3.24
		c-1.93,1.29-3.84,2.74-5.08,4.42c-0.3,0.42-0.62,0.84-0.87,1.28c-0.25,0.44-0.46,0.9-0.61,1.37c-0.31,0.95-0.39,1.97-0.2,3.1
		c2.3,0.65,4.43,0.15,6.34-1.04c0.48-0.29,0.94-0.64,1.39-1c0.45-0.37,0.89-0.77,1.27-1.22c0.78-0.88,1.49-1.87,2.13-2.88
		c1.33-2,2.13-4.18,2.7-5.81C198.44,152.91,198.66,152.23,198.79,151.74z"/>
	<path class="st0" d="M178.83,163.84c0.92-0.63,1.58-1.41,2.03-2.29c0.23-0.44,0.4-0.91,0.52-1.38c0.12-0.48,0.21-0.97,0.21-1.49
		c0.01-2.06-0.6-4.22-1.53-6.15c-1-1.94-2.22-3.61-3.2-4.77c-0.49-0.59-0.9-1.05-1.24-1.37c-0.33-0.32-0.51-0.49-0.51-0.49
		s-0.05,0.21-0.11,0.59c-0.08,0.37-0.21,0.91-0.32,1.57c-0.25,1.32-0.37,3.12-0.5,5.05c-0.04,0.96,0,1.97,0.13,2.97
		c0.04,0.26,0.08,0.5,0.12,0.75c0.03,0.25,0.07,0.49,0.11,0.74c0.09,0.49,0.22,0.98,0.38,1.45
		C175.55,160.92,176.74,162.67,178.83,163.84z"/>
	<path class="st0" d="M193.65,137.59c-0.39,0.42-0.77,0.85-1.14,1.29c-0.36,0.44-0.72,0.88-1.09,1.33c-0.71,0.9-1.32,1.82-1.76,2.75
		c-0.23,0.47-0.39,0.95-0.54,1.43c-0.16,0.48-0.28,0.96-0.33,1.46c-0.11,0.98,0,2,0.41,3.07c2.39,0.22,4.38-0.67,6.03-2.23
		c0.41-0.38,0.8-0.81,1.17-1.27c0.35-0.46,0.66-0.96,0.95-1.48c0.59-1.04,1.09-2.16,1.51-3.3c0.23-0.56,0.37-1.14,0.51-1.71
		c0.14-0.57,0.26-1.13,0.37-1.67c0.2-1.09,0.39-2.1,0.45-2.98c0.11-1.75,0.07-2.9,0.07-2.9s-0.88,0.72-2.12,1.86
		C196.95,134.37,195.22,135.91,193.65,137.59z"/>
	<path class="st0" d="M185.03,145.05c0.13-0.47,0.21-0.95,0.24-1.44c0.01-0.49-0.06-0.99-0.15-1.5c-0.2-1-0.56-1.98-1.04-2.93
		c-0.12-0.24-0.24-0.47-0.37-0.7c-0.14-0.23-0.3-0.46-0.45-0.68c-0.31-0.45-0.65-0.88-0.99-1.3c-0.69-0.82-1.42-1.56-2.12-2.21
		c-0.35-0.32-0.71-0.62-1.07-0.9c-0.36-0.27-0.7-0.52-1.01-0.74c-1.26-0.88-2.15-1.36-2.15-1.36s-0.01,0.84,0.13,2.12
		c0.05,0.32,0.06,0.67,0.08,1.04c0.03,0.37,0.07,0.76,0.12,1.18c0.09,0.82,0.29,1.71,0.46,2.62c0.16,0.92,0.4,1.86,0.74,2.78
		c0.17,0.46,0.36,0.92,0.59,1.37c0.19,0.45,0.4,0.89,0.66,1.31c1,1.69,2.52,3.16,4.8,3.93
		C184.27,146.88,184.77,145.99,185.03,145.05z"/>
	<path class="st0" d="M189.31,125.71c-0.24,1.01-0.32,2.01-0.16,2.98c0.07,0.49,0.23,0.96,0.4,1.44c0.17,0.48,0.4,0.95,0.72,1.42
		c2.37-0.33,4.2-1.65,5.33-3.55c0.58-0.95,1.04-2.04,1.4-3.19c0.32-1.15,0.47-2.37,0.58-3.57c0.05-0.6,0.09-1.21,0.09-1.8
		c-0.02-0.58-0.05-1.15-0.09-1.7c-0.09-1.1-0.21-2.13-0.34-3c-0.36-1.71-0.69-2.82-0.69-2.82s-0.66,0.91-1.56,2.33
		c-0.44,0.69-0.96,1.52-1.54,2.43c-0.56,0.91-1.14,1.88-1.67,2.89c-0.51,0.99-1.07,2.03-1.51,3.06
		C189.83,123.68,189.52,124.7,189.31,125.71z"/>
	<path class="st0" d="M184.76,125.42c-0.43-0.91-1.07-1.77-1.78-2.56c-0.35-0.39-0.74-0.77-1.13-1.13
		c-0.39-0.36-0.85-0.68-1.29-0.99c-1.78-1.23-3.57-2.12-5.06-2.64c-1.45-0.53-2.43-0.76-2.43-0.76s0.2,0.8,0.68,1.98
		c0.21,0.6,0.44,1.31,0.76,2.05c0.16,0.37,0.33,0.76,0.53,1.16c0.19,0.4,0.35,0.81,0.56,1.22c0.4,0.82,0.89,1.65,1.46,2.44
		c0.51,0.8,1.12,1.57,1.83,2.25c1.48,1.36,3.2,2.43,5.61,2.65c0.3-0.46,0.53-0.93,0.69-1.41c0.16-0.48,0.19-0.96,0.2-1.45
		C185.39,127.29,185.16,126.33,184.76,125.42z"/>
	<path class="st0" d="M188.03,94.27c0,0-0.39,1.01-0.95,2.6c-0.56,1.59-1.19,3.66-1.77,5.87c-0.28,1.1-0.48,2.21-0.65,3.31
		c-0.18,1.11-0.25,2.19-0.17,3.2c0.05,0.5,0.09,1.01,0.19,1.49c0.1,0.49,0.24,0.96,0.45,1.41c0.2,0.44,0.45,0.87,0.77,1.28
		c0.29,0.41,0.64,0.81,1.06,1.18c1.11-0.46,2.01-1.11,2.72-1.92c0.72-0.82,1.17-1.76,1.51-2.82c0.16-0.53,0.28-1.08,0.37-1.65
		c0.09-0.57,0.15-1.16,0.14-1.75c0-1.18-0.13-2.39-0.33-3.57c-0.48-2.33-1.25-4.55-2-6.09c-0.36-0.78-0.69-1.42-0.92-1.87
		C188.19,94.51,188.03,94.27,188.03,94.27z"/>
	<path class="st0" d="M180.9,110.73c-0.23-0.43-0.49-0.85-0.83-1.22c-0.67-0.77-1.48-1.44-2.36-2.03c-0.89-0.58-1.92-1.05-2.91-1.43
		c-0.5-0.19-1-0.37-1.49-0.51c-0.49-0.15-1-0.27-1.48-0.38c-0.97-0.22-1.85-0.35-2.61-0.45c-0.76-0.09-1.38-0.14-1.84-0.15
		c-0.45-0.02-0.71-0.02-0.71-0.02s0.11,0.18,0.31,0.5c0.2,0.32,0.47,0.77,0.83,1.3c0.18,0.27,0.38,0.55,0.61,0.86
		c0.11,0.14,0.23,0.3,0.35,0.46c0.11,0.16,0.23,0.32,0.35,0.49c0.48,0.66,1.05,1.36,1.69,2.04c0.59,0.69,1.26,1.38,2.01,2.01
		c0.19,0.16,0.39,0.31,0.58,0.46c0.18,0.15,0.37,0.3,0.57,0.45c0.39,0.29,0.8,0.55,1.23,0.79c0.86,0.48,1.84,0.85,2.84,1.07
		c1,0.21,2.1,0.27,3.28,0.07c0.17-0.51,0.27-1.02,0.29-1.52c0-0.49-0.06-0.97-0.18-1.43C181.3,111.6,181.12,111.15,180.9,110.73z"/>
	<path class="st0" d="M179.4,99.16c1.92-1.4,2.8-3.36,2.95-5.56c0.05-1.09-0.07-2.23-0.31-3.38c-0.26-1.14-0.67-2.25-1.14-3.35
		c-0.47-1.08-1.05-2.08-1.6-3.01c-0.55-0.93-1.16-1.72-1.67-2.4c-0.51-0.69-0.97-1.22-1.31-1.59c-0.33-0.36-0.52-0.57-0.52-0.57
		s-0.19,1.08-0.36,2.7c-0.1,0.82-0.2,1.78-0.28,2.81c-0.04,0.51-0.07,1.04-0.1,1.59c-0.03,0.55-0.06,1.11-0.07,1.67
		c-0.02,2.23,0.08,4.54,0.69,6.48c0.29,0.98,0.71,1.88,1.33,2.64C177.6,97.99,178.37,98.65,179.4,99.16z"/>
	<path class="st0" d="M171.52,95.26c-1.64-1.19-3.8-1.9-5.94-2.2c-1.05-0.17-2.12-0.23-3.11-0.23c-0.98,0-1.88,0.04-2.65,0.1
		c-1.55,0.15-2.55,0.36-2.55,0.36s0.14,0.16,0.41,0.43c0.26,0.27,0.67,0.64,1.13,1.1c0.47,0.46,1.06,0.96,1.7,1.51
		c0.63,0.55,1.36,1.11,2.14,1.65c0.75,0.55,1.59,1.07,2.47,1.53c0.86,0.47,1.77,0.86,2.74,1.12c1.91,0.54,4,0.63,6.22-0.32
		c0.05-1.06-0.17-2.03-0.62-2.89C173,96.59,172.32,95.87,171.52,95.26z"/>
</g>
<g>
	<g>
		<path class="st3" d="M115.25,114.96c0.15,10.5,0.36,21.1-0.21,31.59c-0.23,4.25-0.88,8.7-3.36,12.28
			c-2.14,3.09-5.77,5.06-9.47,5.48c-7.78,0.89-14.56-5.64-14.24-13.45c0.37-9.02,9.95-14.27,16.05-19.38
			c3.89-3.26,6.94-7.07,8.93-11.76c2-4.72,2.99-9.75,3.93-14.76c-0.98-0.13-1.96-0.27-2.95-0.4c0.46,3.57,0.93,7.14,1.39,10.71
			c0.24,1.89,3.25,1.91,3,0c-0.46-3.57-0.93-7.14-1.39-10.71c-0.1-0.75-0.5-1.36-1.3-1.47c-0.68-0.09-1.51,0.34-1.65,1.07
			c-0.89,4.74-1.79,9.54-3.63,14.02c-1.9,4.64-4.95,8.28-8.79,11.45c-6.87,5.67-16.18,11.25-16.6,21.23
			c-0.36,8.42,6.39,16.03,14.8,16.51c4.13,0.23,8.29-1.18,11.5-3.76c3.49-2.81,5.36-7.07,6.15-11.39
			c1.05-5.75,0.82-11.75,0.88-17.57c0.07-6.56,0.05-13.13-0.04-19.69C118.23,113.03,115.23,113.02,115.25,114.96L115.25,114.96z"/>
	</g>
</g>
<g>
	<g>
		<path class="st3" d="M127.05,162.19c-0.99-10.43-1.28-20.92-0.85-31.38c0.31-7.47-0.09-18.77,7.53-23
			c3.33-1.85,7.63-1.86,10.91,0.1c2.93,1.76,4.72,4.85,5.5,8.11c1.95,8.14-2.46,15.65-7.72,21.51
			c-6.62,7.37-15.06,13.38-19.39,22.55c-0.82,1.74,1.77,3.26,2.59,1.51c7.43-15.76,31.34-25.09,27.62-45.39
			c-0.66-3.63-2.44-7.24-5.32-9.62c-3.29-2.72-7.57-3.68-11.74-2.84c-4.26,0.86-7.75,3.75-9.7,7.59c-2,3.93-2.58,8.39-2.9,12.73
			c-0.93,12.69-0.72,25.47,0.48,38.13C124.23,164.09,127.23,164.11,127.05,162.19L127.05,162.19z"/>
	</g>
</g>
<path class="st3" d="M116.16,112.24c-0.17-1.27-2.13-1.12-2.42,0c-0.69,2.68-1.38,5.36-1.98,8.05c-0.62-0.39-1.59-0.17-1.94,0.68
	c-0.51,1.26-0.9,2.56-1.16,3.89c-0.52,0.75-0.98,1.55-1.43,2.35c-0.84,1.48-1.79,2.75-3.14,3.81c-2.61,2.05-5.71,3.34-8.11,5.69
	c-0.24,0.24-0.36,0.5-0.38,0.76c-3.19,2.17-6.21,4.55-8.15,7.98c-0.37,0.65-0.04,1.46,0.56,1.77c-0.24,0.94-0.36,1.92-0.37,2.87
	c-0.77-0.5-2.09-0.11-1.98,1c0.01,0.11,0.03,0.22,0.05,0.33c0,0,0,0,0,0c0,0,0,0,0,0c0.11,0.8,0.35,1.54,0.7,2.23
	c0.26,0.7,0.54,1.38,0.86,2.06c0.24,0.52,0.74,0.67,1.22,0.58c0.1,0.09,0.21,0.17,0.31,0.26c0.79,2.28,1.99,4.43,3.72,5.95
	c1.62,1.42,3.7,2.09,5.87,2.24c0.53,0.56,1.29,0.84,2.09,0.66c0.37-0.09,0.69-0.26,0.97-0.47c0.52,0.2,1.08,0.18,1.65,0.13
	c1.39-0.14,2.82-0.31,4.14-0.77c2.45-0.86,4.04-2.61,4.97-4.94c0.82-0.8,1.48-1.71,1.85-2.78c0.36-0.13,0.69-0.41,0.85-0.81
	c0.76-1.82,0.82-3.82,0.26-5.71c-0.04-0.14-0.1-0.25-0.17-0.36c0.19-0.98,0.34-1.97,0.44-2.97c0.41-3.75,0.5-7.53,0.63-11.29
	c0.13-3.85,0.25-7.7,0.38-11.55C116.57,120,116.68,116.12,116.16,112.24z"/>
<path class="st3" d="M149.46,112.89c-2.88-6.32-10.43-10.48-16.78-6.29c-0.48,0.32-0.93,0.67-1.36,1.04
	c-0.1,0.02-0.2,0.04-0.29,0.07c-0.63,0.16-0.9,0.63-0.9,1.11c-1.93,2.15-3.22,4.85-4.21,7.59c-0.31,0.86,0.47,1.54,1.25,1.55
	c-0.23,0.58-0.38,1.2-0.47,1.84c-0.37,0.11-0.67,0.37-0.78,0.82c-0.71,3.12-1.14,6.3-1.27,9.51c-0.03,0.75,0.67,1.25,1.34,1.25
	c-0.12,1.13-0.24,2.27-0.37,3.4c-0.65,5.97-1.15,11.95-0.38,17.91c-0.25,0.66-0.49,1.33-0.69,2.01c-0.42,1.43,1.52,2.1,2.3,0.97
	c0.28-0.41,0.55-0.82,0.81-1.24c1.07-0.73,1.55-1.81,1.72-2.99c0.53,0.82,2,0.93,2.27-0.28c0.17-0.77,0.4-1.52,0.67-2.24
	c0.45-0.53,0.84-1.1,1.15-1.7c0.22,0.01,0.45-0.05,0.67-0.23c1.4-1.08,2.54-2.32,3.42-3.87c0.05-0.09,0.08-0.18,0.1-0.27
	c0.94-0.85,1.94-1.65,2.91-2.46c2.38-2.01,4.28-4.26,5.57-7.12c0.11-0.08,0.21-0.17,0.29-0.28
	C150.8,127.25,152.53,119.61,149.46,112.89z"/>
</svg>
