<svg id="MunnerCalendarV2" xmlns="http://www.w3.org/2000/svg" viewBox="0 0 202.81 165.34"><defs><style>.cls-1{fill:#339989;}.cls-2{fill:#fffafb;}</style></defs><path class="cls-1" d="M76.8,180.66q0,11.1-8.66,16.93t-20.67,5.82a35.53,35.53,0,0,1-20.31-5.82q-8.67-5.84-8.66-16.93V63.31q0-13.31,6-19.28t21.9-6q14.49,0,22.09,3.61a49.84,49.84,0,0,1,14,10l33.69,33.73a6.78,6.78,0,0,0,9.62,0l33.37-34a47.36,47.36,0,0,1,13.6-9.71q7.59-3.61,20-3.61,15.9,0,22.26,6t6.36,19.28V180.66q0,11.1-8.65,16.93T192,203.41a35.54,35.54,0,0,1-20.32-5.82Q163,191.76,163,180.66V136.15c0-8.78-12.06-12.85-18.44-6.22l-7.7,8q-8.49,8.33-17.67,8.32-9.54,0-17.31-8.6l-6.54-7c-6.32-6.77-18.55-2.74-18.55,6.11Z" transform="translate(-18.5 -38.07)"/><polygon class="cls-1" points="31.57 165.34 171.29 165.34 143.28 67.2 60.51 67.2 31.57 165.34"/><polygon class="cls-1" points="153.81 73.21 61.6 73.21 69.36 65.66 153.81 73.21"/><path class="cls-2" d="M25.14,135.6a12.65,12.65,0,0,1,12.81-13,12.43,12.43,0,0,1,10.93,6.31l-6.34,3.75a5,5,0,0,0-4.69-2.76,5.73,5.73,0,0,0,0,11.44,4.94,4.94,0,0,0,4.69-2.77l6.34,3.7A12.3,12.3,0,0,1,38,148.61,12.65,12.65,0,0,1,25.14,135.6Z" transform="translate(-18.5 -38.07)"/><path class="cls-2" d="M74.83,123.27v24.65H67.58V145.6a9,9,0,0,1-7.2,3c-6.33,0-11.55-5.67-11.55-13s5.22-13,11.55-13a9,9,0,0,1,7.2,3v-2.32ZM67.58,135.6c0-3.7-2.42-6-5.75-6s-5.75,2.32-5.75,6,2.41,6,5.75,6S67.58,139.29,67.58,135.6Z" transform="translate(-18.5 -38.07)"/><path class="cls-2" d="M78.89,111.93h7.25v36H78.89Z" transform="translate(-18.5 -38.07)"/><path class="cls-2" d="M102.48,142a6.22,6.22,0,0,0,4.64-1.88l5.8,3.4c-2.37,3.36-5.94,5.08-10.54,5.08-8.26,0-13.39-5.67-13.39-13s5.23-13,12.86-13c7.06,0,12.28,5.57,12.28,13a14.76,14.76,0,0,1-.29,3H96.68C97.6,141.12,99.82,142,102.48,142Zm4.45-9a5.41,5.41,0,0,0-10.39,0Z" transform="translate(-18.5 -38.07)"/><path class="cls-2" d="M140.19,132.79v15.13h-7.26v-14c0-3.06-1.88-4.49-4.2-4.49-2.66,0-4.5,1.58-4.5,5.08v13.46H117V123.27h7.25v2.32c1.31-1.83,3.73-3,6.92-3C136,122.58,140.19,126.13,140.19,132.79Z" transform="translate(-18.5 -38.07)"/><path class="cls-2" d="M168.7,113.41v34.51h-7.25V145.6a9,9,0,0,1-7.2,3c-6.33,0-11.55-5.67-11.55-13s5.22-13,11.55-13a9,9,0,0,1,7.2,3V113.41Zm-7.25,22.19c0-3.7-2.41-6-5.75-6s-5.75,2.32-5.75,6,2.42,6,5.75,6S161.45,139.29,161.45,135.6Z" transform="translate(-18.5 -38.07)"/><path class="cls-2" d="M197.56,123.27v24.65h-7.25V145.6a9,9,0,0,1-7.2,3c-6.33,0-11.55-5.67-11.55-13s5.22-13,11.55-13a9,9,0,0,1,7.2,3v-2.32Zm-7.25,12.33c0-3.7-2.42-6-5.75-6s-5.75,2.32-5.75,6,2.41,6,5.75,6S190.31,139.29,190.31,135.6Z" transform="translate(-18.5 -38.07)"/><path class="cls-2" d="M216.12,122.78v8.38c-3-.49-7.25.74-7.25,5.62v11.14h-7.25V123.27h7.25v4.39C209.84,124.36,213.08,122.78,216.12,122.78Z" transform="translate(-18.5 -38.07)"/></svg> 