<svg id="Journal_Program_Logo_" data-name="Journal Program (Logo)" xmlns="http://www.w3.org/2000/svg" xmlns:xlink="http://www.w3.org/1999/xlink" viewBox="0 0 215.6 198.19"><defs><style>.cls-1{fill:url(#Degradado_sin_nombre_172);}.cls-2{fill:url(#Degradado_sin_nombre_194);}.cls-3{fill:#009540;}.cls-4{fill:url(#Degradado_sin_nombre_196);}</style><linearGradient id="Degradado_sin_nombre_172" x1="59.79" y1="96.02" x2="104.79" y2="96.02" gradientUnits="userSpaceOnUse"><stop offset="0" stop-color="#4062bb"/><stop offset="1" stop-color="#1f0322"/></linearGradient><linearGradient id="Degradado_sin_nombre_194" x1="21.29" y1="119.17" x2="143.29" y2="119.17" gradientUnits="userSpaceOnUse"><stop offset="0" stop-color="#0091ad"/><stop offset="0.13" stop-color="#0288a4"/><stop offset="0.34" stop-color="#07708c"/><stop offset="0.61" stop-color="#104866"/><stop offset="0.92" stop-color="#1c1130"/><stop offset="1" stop-color="#1f0322"/></linearGradient><linearGradient id="Degradado_sin_nombre_196" x1="96.29" y1="120.08" x2="220.29" y2="120.08" gradientUnits="userSpaceOnUse"><stop offset="0" stop-color="#0091ad"/><stop offset="0.08" stop-color="#03839f"/><stop offset="0.39" stop-color="#0f4c69"/><stop offset="0.66" stop-color="#182443"/><stop offset="0.87" stop-color="#1d0c2b"/><stop offset="1" stop-color="#1f0322"/></linearGradient></defs><g id="Journal"><g id="Program"><path class="cls-1" d="M104.78,23.26c.13,21.73-2.16,60.23-19.39,100.84a212.21,212.21,0,0,1-25.6,44.68" transform="translate(-13.25 -20.95)"/><path class="cls-2" d="M107.68,23.24A273.08,273.08,0,0,1,114,63.5c.59,6.89.8,13.85.85,20.89,0,3.51,0,7-.21,10.59-.09,1.77-.13,3.56-.26,5.33l-.39,5.35c-.11,1.8-.31,3.58-.5,5.37l-.59,5.39c-.52,3.57-1,7.2-1.61,10.8-1.24,7.21-2.75,14.47-4.7,21.69a236.91,236.91,0,0,1-16,43l-1.47,3a39.94,39.94,0,0,1-71.82-35A40.72,40.72,0,0,1,29,145.66a166.42,166.42,0,0,0,24.49-23c3.83-4.34,7.43-9,10.91-13.76,1.78-2.4,3.38-4.9,5.1-7.38l2.41-3.82c.81-1.28,1.63-2.57,2.38-3.88l2.3-4c.78-1.33,1.47-2.69,2.21-4,1.5-2.69,2.85-5.47,4.24-8.26,2.68-5.6,5.28-11.36,7.54-17.28a257.56,257.56,0,0,0,11.31-37v0a3,3,0,0,1,5.79,0Z" transform="translate(-13.25 -20.95)"/></g></g><g id="Journal-2" data-name="Journal"><g id="Program-2" data-name="Program"><path class="cls-3" d="M135.8,216.78c-.13-21.73,2.16-60.23,19.39-100.84a212.21,212.21,0,0,1,25.6-44.68" transform="translate(-13.25 -20.95)"/><path class="cls-4" d="M132.83,216.8a272,272,0,0,1-6.51-40.3c-.63-6.91-.88-13.88-1-20.94,0-3.51,0-7.07.17-10.62.07-1.78.1-3.57.22-5.35l.37-5.37c.1-1.8.29-3.59.48-5.38l.56-5.42c.51-3.58.94-7.23,1.57-10.84,1.21-7.24,2.7-14.53,4.62-21.79A237.11,237.11,0,0,1,149.2,47.54l1.58-3.27a41.06,41.06,0,1,1,74,35.64A41.69,41.69,0,0,1,212.38,95a165,165,0,0,0-24.6,22.73c-3.85,4.3-7.49,8.88-11,13.66-1.78,2.38-3.4,4.86-5.14,7.33l-2.43,3.8c-.82,1.28-1.65,2.55-2.4,3.87l-2.33,3.94c-.79,1.32-1.49,2.67-2.24,4-1.52,2.68-2.88,5.45-4.29,8.23-2.71,5.58-5.35,11.32-7.65,17.23a256.41,256.41,0,0,0-11.53,37v0a3,3,0,0,1-5.93,0Z" transform="translate(-13.25 -20.95)"/></g></g></svg>